<svg id="visual" viewBox="0 0 900 600" width="900" height="600" xmlns="http://www.w3.org/2000/svg" xmlns:xlink="http://www.w3.org/1999/xlink" version="1.1">
    <path d="M0 488L21.5 485C43 482 86 476 128.8 470.5C171.7 465 214.3 460 257.2 466.8C300 473.7 343 492.3 385.8 501.2C428.7 510 471.3 509 514.2 497.2C557 485.3 600 462.7 642.8 456C685.7 449.3 728.3 458.7 771.2 458.7C814 458.7 857 449.3 878.5 444.7L900 440L900 601L878.5 601C857 601 814 601 771.2 601C728.3 601 685.7 601 642.8 601C600 601 557 601 514.2 601C471.3 601 428.7 601 385.8 601C343 601 300 601 257.2 601C214.3 601 171.7 601 128.8 601C86 601 43 601 21.5 601L0 601Z" fill="#fa7268"></path>
    <path d="M0 484L21.5 481.7C43 479.3 86 474.7 128.8 473.5C171.7 472.3 214.3 474.7 257.2 476.3C300 478 343 479 385.8 482.3C428.7 485.7 471.3 491.3 514.2 489C557 486.7 600 476.3 642.8 481.5C685.7 486.7 728.3 507.3 771.2 507.5C814 507.7 857 487.3 878.5 477.2L900 467L900 601L878.5 601C857 601 814 601 771.2 601C728.3 601 685.7 601 642.8 601C600 601 557 601 514.2 601C471.3 601 428.7 601 385.8 601C343 601 300 601 257.2 601C214.3 601 171.7 601 128.8 601C86 601 43 601 21.5 601L0 601Z" fill="#ef5f67"></path>
    <path d="M0 512L21.5 515.3C43 518.7 86 525.3 128.8 531.7C171.7 538 214.3 544 257.2 542.2C300 540.3 343 530.7 385.8 525.3C428.7 520 471.3 519 514.2 521.3C557 523.7 600 529.3 642.8 531C685.7 532.7 728.3 530.3 771.2 530.7C814 531 857 534 878.5 535.5L900 537L900 601L878.5 601C857 601 814 601 771.2 601C728.3 601 685.7 601 642.8 601C600 601 557 601 514.2 601C471.3 601 428.7 601 385.8 601C343 601 300 601 257.2 601C214.3 601 171.7 601 128.8 601C86 601 43 601 21.5 601L0 601Z" fill="#e34c67"></path>
    <path d="M0 563L21.5 561.7C43 560.3 86 557.7 128.8 555C171.7 552.3 214.3 549.7 257.2 551C300 552.3 343 557.7 385.8 559.8C428.7 562 471.3 561 514.2 561.3C557 561.7 600 563.3 642.8 565.2C685.7 567 728.3 569 771.2 566C814 563 857 555 878.5 551L900 547L900 601L878.5 601C857 601 814 601 771.2 601C728.3 601 685.7 601 642.8 601C600 601 557 601 514.2 601C471.3 601 428.7 601 385.8 601C343 601 300 601 257.2 601C214.3 601 171.7 601 128.8 601C86 601 43 601 21.5 601L0 601Z" fill="#d53867"></path>
    <path d="M0 583L21.5 578.5C43 574 86 565 128.8 561.7C171.7 558.3 214.3 560.7 257.2 563C300 565.3 343 567.7 385.8 566.7C428.7 565.7 471.3 561.3 514.2 564.2C557 567 600 577 642.8 578.5C685.7 580 728.3 573 771.2 567.7C814 562.3 857 558.7 878.5 556.8L900 555L900 601L878.5 601C857 601 814 601 771.2 601C728.3 601 685.7 601 642.8 601C600 601 557 601 514.2 601C471.3 601 428.7 601 385.8 601C343 601 300 601 257.2 601C214.3 601 171.7 601 128.8 601C86 601 43 601 21.5 601L0 601Z" fill="#c62368"></path>
</svg>