<svg id="visual" viewBox="0 0 900 600" width="900" height="600" xmlns="http://www.w3.org/2000/svg" xmlns:xlink="http://www.w3.org/1999/xlink" version="1.1">
    <path d="M0 130L21.5 133.2C43 136.3 86 142.7 128.8 136.8C171.7 131 214.3 113 257.2 110.2C300 107.3 343 119.7 385.8 120.2C428.7 120.7 471.3 109.3 514.2 102.2C557 95 600 92 642.8 92.3C685.7 92.7 728.3 96.3 771.2 104.3C814 112.3 857 124.7 878.5 130.8L900 137L900 0L878.5 0C857 0 814 0 771.2 0C728.3 0 685.7 0 642.8 0C600 0 557 0 514.2 0C471.3 0 428.7 0 385.8 0C343 0 300 0 257.2 0C214.3 0 171.7 0 128.8 0C86 0 43 0 21.5 0L0 0Z" fill="#fa7268"></path>
    <path d="M0 118L21.5 109.7C43 101.3 86 84.7 128.8 75.2C171.7 65.7 214.3 63.3 257.2 65.7C300 68 343 75 385.8 86C428.7 97 471.3 112 514.2 117.8C557 123.7 600 120.3 642.8 116.8C685.7 113.3 728.3 109.7 771.2 103C814 96.3 857 86.7 878.5 81.8L900 77L900 0L878.5 0C857 0 814 0 771.2 0C728.3 0 685.7 0 642.8 0C600 0 557 0 514.2 0C471.3 0 428.7 0 385.8 0C343 0 300 0 257.2 0C214.3 0 171.7 0 128.8 0C86 0 43 0 21.5 0L0 0Z" fill="#ef5f67"></path>
    <path d="M0 94L21.5 95.3C43 96.7 86 99.3 128.8 91.2C171.7 83 214.3 64 257.2 58.2C300 52.3 343 59.7 385.8 66.8C428.7 74 471.3 81 514.2 82C557 83 600 78 642.8 76.8C685.7 75.7 728.3 78.3 771.2 77.7C814 77 857 73 878.5 71L900 69L900 0L878.5 0C857 0 814 0 771.2 0C728.3 0 685.7 0 642.8 0C600 0 557 0 514.2 0C471.3 0 428.7 0 385.8 0C343 0 300 0 257.2 0C214.3 0 171.7 0 128.8 0C86 0 43 0 21.5 0L0 0Z" fill="#e34c67"></path>
    <path d="M0 31L21.5 30.5C43 30 86 29 128.8 28.5C171.7 28 214.3 28 257.2 32.2C300 36.3 343 44.7 385.8 48.8C428.7 53 471.3 53 514.2 51.7C557 50.3 600 47.7 642.8 49.7C685.7 51.7 728.3 58.3 771.2 61.2C814 64 857 63 878.5 62.5L900 62L900 0L878.5 0C857 0 814 0 771.2 0C728.3 0 685.7 0 642.8 0C600 0 557 0 514.2 0C471.3 0 428.7 0 385.8 0C343 0 300 0 257.2 0C214.3 0 171.7 0 128.8 0C86 0 43 0 21.5 0L0 0Z" fill="#d53867"></path>
    <path d="M0 46L21.5 43.2C43 40.3 86 34.7 128.8 34.3C171.7 34 214.3 39 257.2 39.3C300 39.7 343 35.3 385.8 31.3C428.7 27.3 471.3 23.7 514.2 20.2C557 16.7 600 13.3 642.8 14.7C685.7 16 728.3 22 771.2 26.5C814 31 857 34 878.5 35.5L900 37L900 0L878.5 0C857 0 814 0 771.2 0C728.3 0 685.7 0 642.8 0C600 0 557 0 514.2 0C471.3 0 428.7 0 385.8 0C343 0 300 0 257.2 0C214.3 0 171.7 0 128.8 0C86 0 43 0 21.5 0L0 0Z" fill="#c62368"></path>
</svg>